<?xml version="1.0" encoding="UTF-8"?> <svg xmlns="http://www.w3.org/2000/svg" width="66" height="100" viewBox="0 0 66 100" fill="none"> <g clip-path="url(#clip0_102_744)"> <path d="M16.5033 100C25.6095 100 33 92.5334 33 83.3334V66.6667H16.5033C7.39711 66.6667 0.0065918 74.1334 0.0065918 83.3334C0.0065918 92.5334 7.39711 100 16.5033 100Z" fill="#0ACF83"></path> <path d="M0.0065918 50C0.0065918 40.8 7.39711 33.3333 16.5033 33.3333H33V66.6667H16.5033C7.39711 66.6667 0.0065918 59.2 0.0065918 50Z" fill="#A259FF"></path> <path d="M0.00683594 16.6667C0.00683594 7.46667 7.39736 0 16.5035 0H33.0002V33.3333H16.5035C7.39736 33.3333 0.00683594 25.8667 0.00683594 16.6667Z" fill="#F24E1E"></path> <path d="M33 0H49.4967C58.6029 0 65.9934 7.46667 65.9934 16.6667C65.9934 25.8667 58.6029 33.3333 49.4967 33.3333H33V0Z" fill="#FF7262"></path> <path d="M65.9934 50C65.9934 59.2 58.6029 66.6667 49.4967 66.6667C40.3905 66.6667 33 59.2 33 50C33 40.8 40.3905 33.3333 49.4967 33.3333C58.6029 33.3333 65.9934 40.8 65.9934 50Z" fill="#1ABCFE"></path> </g> <defs> <clipPath id="clip0_102_744"> <rect width="66" height="100" fill="white"></rect> </clipPath> </defs> </svg> 