<?xml version="1.0" encoding="UTF-8"?> <svg xmlns="http://www.w3.org/2000/svg" width="100" height="100" viewBox="0 0 100 100" fill="none"> <path d="M34.0298 12.5915C34.9964 9.81467 36.3254 7.2582 38.2988 5.18658C46.1923 -3.23214 59.2407 -1.11644 64.597 9.46205C68.6243 17.4841 72.8932 25.3298 77.0413 33.2637C83.9683 46.4427 90.9758 59.6217 97.8222 72.8449C103.581 83.9082 97.3389 97.8806 85.9014 99.7759C78.8939 100.922 72.3294 97.3958 68.7048 90.5198C62.6236 78.9275 56.5021 67.3352 50.4209 55.787C50.3001 55.5226 50.139 55.3022 49.9779 55.0818C49.3335 54.5088 49.0516 53.6713 48.6489 52.922C45.9506 47.7209 43.1718 42.5639 40.4735 37.4069C38.7418 34.0571 36.9295 30.7513 35.1977 27.4014C33.6271 24.4042 32.9022 21.1425 32.9827 17.7045C33.1035 15.9414 33.3049 14.1783 34.0298 12.5915Z" fill="#3C8BD9"></path> <path d="M34.0297 12.5915C33.6673 14.1783 33.3451 15.7651 33.2645 17.44C33.1437 21.1425 33.9895 24.5805 35.6809 27.7981C40.1109 36.1287 44.541 44.5033 48.9307 52.878C49.3335 53.6273 49.6556 54.3766 50.0584 55.0818C47.642 59.6658 45.2256 64.2058 42.769 68.7898C39.386 75.1809 36.0031 81.6162 32.5799 88.0074C32.4188 88.0074 32.3785 87.9192 32.3383 87.787C32.298 87.4344 32.4188 87.1258 32.4994 86.7732C34.1505 80.1616 32.7813 74.2994 28.6332 69.2746C26.096 66.2333 22.8741 64.5143 19.169 63.9413C14.3362 63.192 10.0673 64.5584 6.24138 67.8642C5.55674 68.4372 5.11374 69.2746 4.30828 69.7154C4.14719 69.7154 4.06664 69.6272 4.02637 69.495C5.95947 65.8366 7.8523 62.1782 9.7854 58.5198C17.7595 43.3573 25.7335 28.1948 33.7478 13.0764C33.8284 12.9001 33.9492 12.7678 34.0297 12.5915Z" fill="#FABC04"></path> <path d="M4.1875 69.6273C4.95268 68.8779 5.6776 68.0846 6.48306 67.3793C16.2694 58.9165 30.969 65.0432 33.1035 78.4427C33.627 81.6603 33.3451 84.7457 32.4591 87.8311C32.4189 88.0955 32.3786 88.3159 32.298 88.5804C31.9356 89.2856 31.6134 90.0349 31.2107 90.7402C27.6264 97.2195 22.3506 100.437 15.4237 99.9523C7.48988 99.3352 1.24757 92.8118 0.1602 84.1727C-0.363348 79.9854 0.401838 76.0625 2.37521 72.4482C2.77794 71.6548 3.26122 70.9496 3.70422 70.1562C3.90559 69.9799 3.82504 69.6273 4.1875 69.6273Z" fill="#34A852"></path> <path d="M4.18754 69.6272C4.02645 69.8035 4.02645 70.1121 3.74454 70.1562C3.70427 69.8476 3.86536 69.6713 4.02645 69.4509L4.18754 69.6272Z" fill="#FABC04"></path> <path d="M32.298 88.5804C32.137 88.2718 32.2981 88.0514 32.4591 87.8311C32.4994 87.8751 32.58 87.9633 32.6202 88.0074L32.298 88.5804Z" fill="#E1C025"></path> </svg> 